<mxfile host="app.diagrams.net" agent="Mozilla/5.0 (Windows NT 10.0; Win64; x64; rv:142.0) Gecko/20100101 Firefox/142.0" version="28.2.0">
  <diagram name="Seite-1" id="RFAcluJtGvtWgcGKilrL">
    <mxGraphModel dx="1462" dy="681" grid="1" gridSize="10" guides="1" tooltips="1" connect="1" arrows="1" fold="1" page="1" pageScale="1" pageWidth="827" pageHeight="1169" math="0" shadow="0">
      <root>
        <mxCell id="0" />
        <mxCell id="1" parent="0" />
        <mxCell id="IE4iGNRpL9LkpNk8QSh--99" value="" style="pointerEvents=1;verticalLabelPosition=bottom;shadow=0;dashed=0;align=center;html=1;verticalAlign=top;shape=mxgraph.electrical.resistors.resistor_1;" parent="1" vertex="1">
          <mxGeometry x="490" y="1325" width="100" height="20" as="geometry" />
        </mxCell>
        <mxCell id="IE4iGNRpL9LkpNk8QSh--100" value="" style="pointerEvents=1;verticalLabelPosition=bottom;shadow=0;dashed=0;align=center;html=1;verticalAlign=top;shape=mxgraph.electrical.resistors.variable_resistor_1;" parent="1" vertex="1">
          <mxGeometry x="490" y="1370" width="100" height="60" as="geometry" />
        </mxCell>
        <mxCell id="IE4iGNRpL9LkpNk8QSh--101" value="" style="verticalLabelPosition=bottom;shadow=0;dashed=0;align=center;html=1;verticalAlign=top;shape=mxgraph.electrical.logic_gates.logic_gate;operation=and;" parent="1" vertex="1">
          <mxGeometry x="1323.25" y="1310" width="68" height="40" as="geometry" />
        </mxCell>
        <mxCell id="IE4iGNRpL9LkpNk8QSh--102" value="" style="verticalLabelPosition=bottom;shadow=0;dashed=0;align=center;html=1;verticalAlign=top;shape=mxgraph.electrical.logic_gates.buffer2;" parent="1" vertex="1">
          <mxGeometry x="1327.25" y="1688" width="60" height="40" as="geometry" />
        </mxCell>
        <mxCell id="IE4iGNRpL9LkpNk8QSh--104" value="" style="verticalLabelPosition=bottom;shadow=0;dashed=0;align=center;html=1;verticalAlign=top;shape=mxgraph.electrical.logic_gates.logic_gate;operation=and;negating=1;negSize=0.15;" parent="1" vertex="1">
          <mxGeometry x="1322.25" y="1375" width="70" height="40" as="geometry" />
        </mxCell>
        <mxCell id="IE4iGNRpL9LkpNk8QSh--105" value="" style="verticalLabelPosition=bottom;shadow=0;dashed=0;align=center;html=1;verticalAlign=top;shape=mxgraph.electrical.logic_gates.logic_gate;operation=or;" parent="1" vertex="1">
          <mxGeometry x="1327.25" y="1434" width="60" height="40" as="geometry" />
        </mxCell>
        <mxCell id="IE4iGNRpL9LkpNk8QSh--106" value="" style="verticalLabelPosition=bottom;shadow=0;dashed=0;align=center;html=1;verticalAlign=top;shape=mxgraph.electrical.logic_gates.logic_gate;operation=or;negating=1;negSize=0.15;" parent="1" vertex="1">
          <mxGeometry x="1327.25" y="1505" width="60" height="40" as="geometry" />
        </mxCell>
        <mxCell id="IE4iGNRpL9LkpNk8QSh--107" value="" style="verticalLabelPosition=bottom;shadow=0;dashed=0;align=center;html=1;verticalAlign=top;shape=mxgraph.electrical.logic_gates.logic_gate;operation=xor;" parent="1" vertex="1">
          <mxGeometry x="1327.25" y="1567.5" width="60" height="40" as="geometry" />
        </mxCell>
        <mxCell id="IE4iGNRpL9LkpNk8QSh--108" value="" style="verticalLabelPosition=bottom;shadow=0;dashed=0;align=center;html=1;verticalAlign=top;shape=mxgraph.electrical.logic_gates.logic_gate;operation=xor;negating=1;negSize=0.15;" parent="1" vertex="1">
          <mxGeometry x="1327.25" y="1625" width="60" height="40" as="geometry" />
        </mxCell>
        <mxCell id="IE4iGNRpL9LkpNk8QSh--109" value="" style="pointerEvents=1;verticalLabelPosition=bottom;shadow=0;dashed=0;align=center;html=1;verticalAlign=top;shape=mxgraph.electrical.capacitors.capacitor_1;" parent="1" vertex="1">
          <mxGeometry x="499.25" y="1500" width="85" height="50" as="geometry" />
        </mxCell>
        <mxCell id="IE4iGNRpL9LkpNk8QSh--112" value="" style="pointerEvents=1;verticalLabelPosition=bottom;shadow=0;dashed=0;align=center;html=1;verticalAlign=top;shape=mxgraph.electrical.inductors.inductor_3;" parent="1" vertex="1">
          <mxGeometry x="490" y="1455" width="100" height="8" as="geometry" />
        </mxCell>
        <mxCell id="IE4iGNRpL9LkpNk8QSh--113" value="" style="pointerEvents=1;verticalLabelPosition=bottom;shadow=0;dashed=0;align=center;html=1;verticalAlign=top;shape=mxgraph.electrical.inductors.transformer_1;" parent="1" vertex="1">
          <mxGeometry x="863.5" y="1827.5" width="44" height="35" as="geometry" />
        </mxCell>
        <mxCell id="IE4iGNRpL9LkpNk8QSh--116" value="" style="pointerEvents=1;fillColor=strokeColor;verticalLabelPosition=bottom;shadow=0;dashed=0;align=center;html=1;verticalAlign=top;shape=mxgraph.electrical.diodes.diode;" parent="1" vertex="1">
          <mxGeometry x="513" y="1575" width="57.5" height="30" as="geometry" />
        </mxCell>
        <mxCell id="IE4iGNRpL9LkpNk8QSh--118" value="" style="pointerEvents=1;verticalLabelPosition=bottom;shadow=0;dashed=0;align=center;html=1;verticalAlign=top;shape=mxgraph.electrical.signal_sources.source;aspect=fixed;points=[[0.5,0,0],[1,0.5,0],[0.5,1,0],[0,0.5,0]];elSignalType=ac;" parent="1" vertex="1">
          <mxGeometry x="865.75" y="1317.5" width="45" height="45" as="geometry" />
        </mxCell>
        <mxCell id="IE4iGNRpL9LkpNk8QSh--119" value="" style="verticalLabelPosition=bottom;shadow=0;dashed=0;align=center;fillColor=strokeColor;html=1;verticalAlign=top;strokeWidth=1;shape=mxgraph.electrical.miscellaneous.monocell_battery;" parent="1" vertex="1">
          <mxGeometry x="854.5" y="1499" width="72.5" height="46" as="geometry" />
        </mxCell>
        <mxCell id="IE4iGNRpL9LkpNk8QSh--120" value="" style="pointerEvents=1;verticalLabelPosition=bottom;shadow=0;dashed=0;align=center;html=1;verticalAlign=top;shape=mxgraph.electrical.miscellaneous.batteryStack;" parent="1" vertex="1">
          <mxGeometry x="843.5" y="1565" width="87" height="50" as="geometry" />
        </mxCell>
        <mxCell id="IE4iGNRpL9LkpNk8QSh--121" value="" style="pointerEvents=1;verticalLabelPosition=bottom;shadow=0;dashed=0;align=center;html=1;verticalAlign=top;shape=mxgraph.electrical.signal_sources.source;aspect=fixed;points=[[0.5,0,0],[1,0.5,0],[0.5,1,0],[0,0.5,0]];elSignalType=square;" parent="1" vertex="1">
          <mxGeometry x="867.75" y="1436" width="46" height="46" as="geometry" />
        </mxCell>
        <mxCell id="IE4iGNRpL9LkpNk8QSh--122" value="" style="verticalLabelPosition=bottom;shadow=0;dashed=0;align=center;html=1;verticalAlign=top;shape=mxgraph.electrical.transistors.npn_transistor_1;" parent="1" vertex="1">
          <mxGeometry x="518.75" y="1678" width="42.5" height="70" as="geometry" />
        </mxCell>
        <mxCell id="IE4iGNRpL9LkpNk8QSh--123" value="" style="verticalLabelPosition=bottom;shadow=0;dashed=0;align=center;html=1;verticalAlign=top;shape=mxgraph.electrical.transistors.pnp_transistor_1;" parent="1" vertex="1">
          <mxGeometry x="518.75" y="1755" width="42.5" height="50" as="geometry" />
        </mxCell>
        <mxCell id="IE4iGNRpL9LkpNk8QSh--124" value="" style="perimeter=ellipsePerimeter;verticalLabelPosition=bottom;shadow=0;dashed=0;align=center;html=1;verticalAlign=top;shape=mxgraph.electrical.instruments.signal_generator;" parent="1" vertex="1">
          <mxGeometry x="862.5" y="1753.5" width="46" height="45" as="geometry" />
        </mxCell>
        <mxCell id="IE4iGNRpL9LkpNk8QSh--125" value="&lt;font&gt;V&lt;/font&gt;" style="verticalLabelPosition=middle;shadow=0;dashed=0;align=center;html=1;verticalAlign=middle;strokeWidth=1;shape=ellipse;aspect=fixed;fontSize=32;" parent="1" vertex="1">
          <mxGeometry x="865.75" y="1377.5" width="45" height="45" as="geometry" />
        </mxCell>
        <mxCell id="IE4iGNRpL9LkpNk8QSh--128" value="" style="pointerEvents=1;verticalLabelPosition=bottom;shadow=0;dashed=0;align=center;html=1;verticalAlign=top;shape=mxgraph.electrical.miscellaneous.light_bulb;" parent="1" vertex="1">
          <mxGeometry x="518.75" y="1825" width="46.25" height="40" as="geometry" />
        </mxCell>
        <mxCell id="IE4iGNRpL9LkpNk8QSh--130" value="&lt;div&gt;Widerstand&lt;/div&gt;" style="text;html=1;align=left;verticalAlign=middle;whiteSpace=wrap;rounded=0;fontSize=26;" parent="1" vertex="1">
          <mxGeometry x="608" y="1320" width="60" height="30" as="geometry" />
        </mxCell>
        <mxCell id="IE4iGNRpL9LkpNk8QSh--132" value="Potentiometer" style="text;html=1;align=left;verticalAlign=middle;whiteSpace=wrap;rounded=0;fontSize=26;" parent="1" vertex="1">
          <mxGeometry x="607.5" y="1385" width="60" height="30" as="geometry" />
        </mxCell>
        <mxCell id="IE4iGNRpL9LkpNk8QSh--134" value="Spule" style="text;html=1;align=left;verticalAlign=middle;whiteSpace=wrap;rounded=0;fontSize=26;" parent="1" vertex="1">
          <mxGeometry x="608" y="1444" width="60" height="30" as="geometry" />
        </mxCell>
        <mxCell id="IE4iGNRpL9LkpNk8QSh--135" value="Kondensator" style="text;html=1;align=left;verticalAlign=middle;whiteSpace=wrap;rounded=0;fontSize=26;" parent="1" vertex="1">
          <mxGeometry x="608" y="1510" width="60" height="30" as="geometry" />
        </mxCell>
        <mxCell id="IE4iGNRpL9LkpNk8QSh--138" value="Diode" style="text;html=1;align=left;verticalAlign=middle;whiteSpace=wrap;rounded=0;fontSize=26;" parent="1" vertex="1">
          <mxGeometry x="605" y="1575" width="60" height="30" as="geometry" />
        </mxCell>
        <mxCell id="IE4iGNRpL9LkpNk8QSh--140" value="" style="pointerEvents=1;fillColor=strokeColor;verticalLabelPosition=bottom;shadow=0;dashed=0;align=center;html=1;verticalAlign=top;shape=mxgraph.electrical.diodes.diode;" parent="1" vertex="1">
          <mxGeometry x="515" y="1635" width="57.5" height="30" as="geometry" />
        </mxCell>
        <mxCell id="IE4iGNRpL9LkpNk8QSh--141" value="" style="endArrow=classic;html=1;rounded=0;" parent="1" edge="1">
          <mxGeometry width="50" height="50" relative="1" as="geometry">
            <mxPoint x="556.25" y="1632" as="sourcePoint" />
            <mxPoint x="568.75" y="1622" as="targetPoint" />
          </mxGeometry>
        </mxCell>
        <mxCell id="IE4iGNRpL9LkpNk8QSh--142" value="" style="endArrow=classic;html=1;rounded=0;" parent="1" edge="1">
          <mxGeometry width="50" height="50" relative="1" as="geometry">
            <mxPoint x="562" y="1639" as="sourcePoint" />
            <mxPoint x="574.5" y="1629" as="targetPoint" />
          </mxGeometry>
        </mxCell>
        <mxCell id="IE4iGNRpL9LkpNk8QSh--143" value="LED" style="text;html=1;align=left;verticalAlign=middle;whiteSpace=wrap;rounded=0;fontSize=26;" parent="1" vertex="1">
          <mxGeometry x="605" y="1635" width="60" height="30" as="geometry" />
        </mxCell>
        <mxCell id="IE4iGNRpL9LkpNk8QSh--144" value="Transistor (NPN)" style="text;html=1;align=left;verticalAlign=middle;whiteSpace=wrap;rounded=0;fontSize=26;" parent="1" vertex="1">
          <mxGeometry x="605" y="1698" width="230" height="30" as="geometry" />
        </mxCell>
        <mxCell id="IE4iGNRpL9LkpNk8QSh--145" value="Transistor (PNP)" style="text;html=1;align=left;verticalAlign=middle;whiteSpace=wrap;rounded=0;fontSize=26;" parent="1" vertex="1">
          <mxGeometry x="605" y="1765" width="230" height="30" as="geometry" />
        </mxCell>
        <mxCell id="IE4iGNRpL9LkpNk8QSh--147" value="Lampe" style="text;html=1;align=left;verticalAlign=middle;whiteSpace=wrap;rounded=0;fontSize=26;" parent="1" vertex="1">
          <mxGeometry x="606.5" y="1830" width="230" height="30" as="geometry" />
        </mxCell>
        <mxCell id="IE4iGNRpL9LkpNk8QSh--156" value="Wechselspannungsquelle" style="text;html=1;align=left;verticalAlign=middle;whiteSpace=wrap;rounded=0;fontSize=26;" parent="1" vertex="1">
          <mxGeometry x="955" y="1320" width="60" height="30" as="geometry" />
        </mxCell>
        <mxCell id="IE4iGNRpL9LkpNk8QSh--157" value="Voltmeter" style="text;html=1;align=left;verticalAlign=middle;whiteSpace=wrap;rounded=0;fontSize=26;" parent="1" vertex="1">
          <mxGeometry x="954.5" y="1385" width="60" height="30" as="geometry" />
        </mxCell>
        <mxCell id="IE4iGNRpL9LkpNk8QSh--158" value="Rechtecksspannungsquelle" style="text;html=1;align=left;verticalAlign=middle;whiteSpace=wrap;rounded=0;fontSize=26;" parent="1" vertex="1">
          <mxGeometry x="955" y="1444" width="60" height="30" as="geometry" />
        </mxCell>
        <mxCell id="IE4iGNRpL9LkpNk8QSh--159" value="Batteriezelle" style="text;html=1;align=left;verticalAlign=middle;whiteSpace=wrap;rounded=0;fontSize=26;" parent="1" vertex="1">
          <mxGeometry x="955" y="1510" width="60" height="30" as="geometry" />
        </mxCell>
        <mxCell id="IE4iGNRpL9LkpNk8QSh--160" value="Batterie" style="text;html=1;align=left;verticalAlign=middle;whiteSpace=wrap;rounded=0;fontSize=26;" parent="1" vertex="1">
          <mxGeometry x="952" y="1575" width="60" height="30" as="geometry" />
        </mxCell>
        <mxCell id="IE4iGNRpL9LkpNk8QSh--164" value="Signalmasse (AGND)" style="text;html=1;align=left;verticalAlign=middle;whiteSpace=wrap;rounded=0;fontSize=26;" parent="1" vertex="1">
          <mxGeometry x="952" y="1635" width="278" height="30" as="geometry" />
        </mxCell>
        <mxCell id="IE4iGNRpL9LkpNk8QSh--165" value="Masse (GND)" style="text;html=1;align=left;verticalAlign=middle;whiteSpace=wrap;rounded=0;fontSize=26;" parent="1" vertex="1">
          <mxGeometry x="952" y="1698" width="303" height="30" as="geometry" />
        </mxCell>
        <mxCell id="IE4iGNRpL9LkpNk8QSh--166" value="Signalgenerator" style="text;html=1;align=left;verticalAlign=middle;whiteSpace=wrap;rounded=0;fontSize=26;" parent="1" vertex="1">
          <mxGeometry x="952" y="1765" width="230" height="30" as="geometry" />
        </mxCell>
        <mxCell id="IE4iGNRpL9LkpNk8QSh--167" value="Transformator" style="text;html=1;align=left;verticalAlign=middle;whiteSpace=wrap;rounded=0;fontSize=26;" parent="1" vertex="1">
          <mxGeometry x="953.5" y="1830" width="230" height="30" as="geometry" />
        </mxCell>
        <mxCell id="IE4iGNRpL9LkpNk8QSh--168" value="" style="pointerEvents=1;verticalLabelPosition=bottom;shadow=0;dashed=0;align=center;html=1;verticalAlign=top;shape=mxgraph.electrical.signal_sources.signal_ground;" parent="1" vertex="1">
          <mxGeometry x="869" y="1630" width="36" height="35" as="geometry" />
        </mxCell>
        <mxCell id="IE4iGNRpL9LkpNk8QSh--169" value="" style="pointerEvents=1;verticalLabelPosition=bottom;shadow=0;dashed=0;align=center;html=1;verticalAlign=top;shape=mxgraph.electrical.signal_sources.protective_earth;" parent="1" vertex="1">
          <mxGeometry x="862.5" y="1691" width="48.62" height="37" as="geometry" />
        </mxCell>
        <mxCell id="IE4iGNRpL9LkpNk8QSh--180" value="Schalter (NO)" style="text;html=1;align=left;verticalAlign=middle;whiteSpace=wrap;rounded=0;fontSize=26;" parent="1" vertex="1">
          <mxGeometry x="242" y="1317.5" width="191" height="30" as="geometry" />
        </mxCell>
        <mxCell id="IE4iGNRpL9LkpNk8QSh--181" value="Schalter (NC)" style="text;html=1;align=left;verticalAlign=middle;whiteSpace=wrap;rounded=0;fontSize=26;" parent="1" vertex="1">
          <mxGeometry x="241.5" y="1382.5" width="181.5" height="30" as="geometry" />
        </mxCell>
        <mxCell id="IE4iGNRpL9LkpNk8QSh--182" value="Taster (NO)" style="text;html=1;align=left;verticalAlign=middle;whiteSpace=wrap;rounded=0;fontSize=26;" parent="1" vertex="1">
          <mxGeometry x="242" y="1441.5" width="181" height="30" as="geometry" />
        </mxCell>
        <mxCell id="IE4iGNRpL9LkpNk8QSh--183" value="Taster (NC)" style="text;html=1;align=left;verticalAlign=middle;whiteSpace=wrap;rounded=0;fontSize=26;" parent="1" vertex="1">
          <mxGeometry x="242" y="1507.5" width="201" height="30" as="geometry" />
        </mxCell>
        <mxCell id="IE4iGNRpL9LkpNk8QSh--184" value="Sicherung" style="text;html=1;align=left;verticalAlign=middle;whiteSpace=wrap;rounded=0;fontSize=26;" parent="1" vertex="1">
          <mxGeometry x="242" y="1572.5" width="60" height="30" as="geometry" />
        </mxCell>
        <mxCell id="IE4iGNRpL9LkpNk8QSh--188" value="1-3-Wege Schalter" style="text;html=1;align=left;verticalAlign=middle;whiteSpace=wrap;rounded=0;fontSize=26;" parent="1" vertex="1">
          <mxGeometry x="240.5" y="1635" width="225" height="30" as="geometry" />
        </mxCell>
        <mxCell id="IE4iGNRpL9LkpNk8QSh--189" value="Leitungen (kreuzend)" style="text;html=1;align=left;verticalAlign=middle;whiteSpace=wrap;rounded=0;fontSize=26;" parent="1" vertex="1">
          <mxGeometry x="241.5" y="1694.5" width="254" height="30" as="geometry" />
        </mxCell>
        <mxCell id="IE4iGNRpL9LkpNk8QSh--190" value="Leitungen (verbunden)" style="text;html=1;align=left;verticalAlign=middle;whiteSpace=wrap;rounded=0;fontSize=26;" parent="1" vertex="1">
          <mxGeometry x="239" y="1762.5" width="273" height="30" as="geometry" />
        </mxCell>
        <mxCell id="IE4iGNRpL9LkpNk8QSh--191" value="Terminal" style="text;html=1;align=left;verticalAlign=middle;whiteSpace=wrap;rounded=0;fontSize=26;" parent="1" vertex="1">
          <mxGeometry x="240.5" y="1827.5" width="230" height="30" as="geometry" />
        </mxCell>
        <mxCell id="IE4iGNRpL9LkpNk8QSh--192" value="" style="html=1;shape=mxgraph.electrical.electro-mechanical.singleSwitch;aspect=fixed;elSwitchState=off;" parent="1" vertex="1">
          <mxGeometry x="145.5" y="1322.5" width="75" height="20" as="geometry" />
        </mxCell>
        <mxCell id="IE4iGNRpL9LkpNk8QSh--193" value="" style="html=1;shape=mxgraph.electrical.electro-mechanical.singleSwitch;aspect=fixed;elSwitchState=on;" parent="1" vertex="1">
          <mxGeometry x="147.25" y="1385" width="75" height="20" as="geometry" />
        </mxCell>
        <mxCell id="IE4iGNRpL9LkpNk8QSh--194" value="" style="html=1;shape=mxgraph.electrical.electro-mechanical.pushbutton;aspect=fixed;elSwitchState=off;" parent="1" vertex="1">
          <mxGeometry x="147" y="1447" width="75" height="20" as="geometry" />
        </mxCell>
        <mxCell id="IE4iGNRpL9LkpNk8QSh--195" value="" style="html=1;shape=mxgraph.electrical.electro-mechanical.pushbutton;aspect=fixed;elSwitchState=on;" parent="1" vertex="1">
          <mxGeometry x="147" y="1508" width="75" height="20" as="geometry" />
        </mxCell>
        <mxCell id="IE4iGNRpL9LkpNk8QSh--196" value="" style="html=1;shape=mxgraph.electrical.electro-mechanical.fuse2;aspect=fixed;elSwitchState=on;" parent="1" vertex="1">
          <mxGeometry x="149.5" y="1572.5" width="75" height="20" as="geometry" />
        </mxCell>
        <mxCell id="IE4iGNRpL9LkpNk8QSh--198" value="" style="pointerEvents=1;verticalLabelPosition=bottom;shadow=0;dashed=0;align=center;html=1;verticalAlign=top;shape=mxgraph.electrical.electro-mechanical.selectorSwitch3Position2;elSwitchState=1;" parent="1" vertex="1">
          <mxGeometry x="147" y="1624.5" width="75" height="46" as="geometry" />
        </mxCell>
        <mxCell id="IE4iGNRpL9LkpNk8QSh--200" value="" style="endArrow=none;html=1;rounded=0;" parent="1" edge="1">
          <mxGeometry width="50" height="50" relative="1" as="geometry">
            <mxPoint x="186.63" y="1734.5" as="sourcePoint" />
            <mxPoint x="186.63" y="1694.5" as="targetPoint" />
          </mxGeometry>
        </mxCell>
        <mxCell id="IE4iGNRpL9LkpNk8QSh--201" value="" style="endArrow=none;html=1;rounded=0;" parent="1" edge="1">
          <mxGeometry width="50" height="50" relative="1" as="geometry">
            <mxPoint x="162" y="1712.88" as="sourcePoint" />
            <mxPoint x="212" y="1712.88" as="targetPoint" />
          </mxGeometry>
        </mxCell>
        <mxCell id="IE4iGNRpL9LkpNk8QSh--203" value="" style="endArrow=none;html=1;rounded=0;" parent="1" source="IE4iGNRpL9LkpNk8QSh--211" edge="1">
          <mxGeometry width="50" height="50" relative="1" as="geometry">
            <mxPoint x="162" y="1774.38" as="sourcePoint" />
            <mxPoint x="212" y="1774" as="targetPoint" />
          </mxGeometry>
        </mxCell>
        <mxCell id="IE4iGNRpL9LkpNk8QSh--205" value="" style="ellipse;whiteSpace=wrap;html=1;aspect=fixed;fillColor=#000000;" parent="1" vertex="1">
          <mxGeometry x="184.37" y="1771.5" width="5" height="5" as="geometry" />
        </mxCell>
        <mxCell id="IE4iGNRpL9LkpNk8QSh--207" value="" style="endArrow=none;html=1;rounded=0;entryX=0.498;entryY=1.118;entryDx=0;entryDy=0;entryPerimeter=0;" parent="1" edge="1">
          <mxGeometry width="50" height="50" relative="1" as="geometry">
            <mxPoint x="186.96" y="1771.5" as="sourcePoint" />
            <mxPoint x="186.96" y="1748.5" as="targetPoint" />
          </mxGeometry>
        </mxCell>
        <mxCell id="IE4iGNRpL9LkpNk8QSh--208" value="" style="endArrow=none;html=1;rounded=0;entryX=0.498;entryY=1.118;entryDx=0;entryDy=0;entryPerimeter=0;" parent="1" edge="1">
          <mxGeometry width="50" height="50" relative="1" as="geometry">
            <mxPoint x="186.96" y="1799.5" as="sourcePoint" />
            <mxPoint x="186.96" y="1776.5" as="targetPoint" />
          </mxGeometry>
        </mxCell>
        <mxCell id="IE4iGNRpL9LkpNk8QSh--209" value="" style="endArrow=none;html=1;rounded=0;entryX=0.5;entryY=1;entryDx=0;entryDy=0;" parent="1" target="IE4iGNRpL9LkpNk8QSh--211" edge="1">
          <mxGeometry width="50" height="50" relative="1" as="geometry">
            <mxPoint x="202" y="1800" as="sourcePoint" />
            <mxPoint x="208" y="1782" as="targetPoint" />
          </mxGeometry>
        </mxCell>
        <mxCell id="IE4iGNRpL9LkpNk8QSh--214" value="" style="endArrow=none;html=1;rounded=0;entryX=0;entryY=0.5;entryDx=0;entryDy=0;" parent="1" target="IE4iGNRpL9LkpNk8QSh--205" edge="1">
          <mxGeometry width="50" height="50" relative="1" as="geometry">
            <mxPoint x="162" y="1774" as="sourcePoint" />
            <mxPoint x="179.375" y="1762.5049999999999" as="targetPoint" />
          </mxGeometry>
        </mxCell>
        <mxCell id="IE4iGNRpL9LkpNk8QSh--211" value="" style="ellipse;whiteSpace=wrap;html=1;aspect=fixed;fillColor=#000000;" parent="1" vertex="1">
          <mxGeometry x="199.5" y="1771.5" width="5" height="5" as="geometry" />
        </mxCell>
        <mxCell id="IE4iGNRpL9LkpNk8QSh--215" value="" style="endArrow=none;html=1;rounded=0;entryX=0;entryY=0.5;entryDx=0;entryDy=0;exitX=1;exitY=0.5;exitDx=0;exitDy=0;" parent="1" source="IE4iGNRpL9LkpNk8QSh--205" target="IE4iGNRpL9LkpNk8QSh--211" edge="1">
          <mxGeometry width="50" height="50" relative="1" as="geometry">
            <mxPoint x="212" y="1780" as="sourcePoint" />
            <mxPoint x="220" y="1780" as="targetPoint" />
          </mxGeometry>
        </mxCell>
        <mxCell id="IE4iGNRpL9LkpNk8QSh--216" value="" style="ellipse;whiteSpace=wrap;html=1;aspect=fixed;" parent="1" vertex="1">
          <mxGeometry x="199.37" y="1840" width="5" height="5" as="geometry" />
        </mxCell>
        <mxCell id="IE4iGNRpL9LkpNk8QSh--217" value="" style="endArrow=none;html=1;rounded=0;entryX=0;entryY=0.5;entryDx=0;entryDy=0;" parent="1" target="IE4iGNRpL9LkpNk8QSh--216" edge="1">
          <mxGeometry width="50" height="50" relative="1" as="geometry">
            <mxPoint x="166.81" y="1842.38" as="sourcePoint" />
            <mxPoint x="189.18" y="1842.38" as="targetPoint" />
          </mxGeometry>
        </mxCell>
        <mxCell id="IE4iGNRpL9LkpNk8QSh--225" value="AND-Gate" style="text;html=1;align=left;verticalAlign=middle;whiteSpace=wrap;rounded=0;fontSize=26;" parent="1" vertex="1">
          <mxGeometry x="1421.5" y="1315" width="198.5" height="30" as="geometry" />
        </mxCell>
        <mxCell id="IE4iGNRpL9LkpNk8QSh--226" value="NAND-Gate" style="text;html=1;align=left;verticalAlign=middle;whiteSpace=wrap;rounded=0;fontSize=26;" parent="1" vertex="1">
          <mxGeometry x="1421" y="1380" width="239" height="30" as="geometry" />
        </mxCell>
        <mxCell id="IE4iGNRpL9LkpNk8QSh--227" value="OR-Gate" style="text;html=1;align=left;verticalAlign=middle;whiteSpace=wrap;rounded=0;fontSize=26;" parent="1" vertex="1">
          <mxGeometry x="1421.5" y="1439" width="278.5" height="30" as="geometry" />
        </mxCell>
        <mxCell id="IE4iGNRpL9LkpNk8QSh--228" value="NOR-Gate" style="text;html=1;align=left;verticalAlign=middle;whiteSpace=wrap;rounded=0;fontSize=26;" parent="1" vertex="1">
          <mxGeometry x="1421.5" y="1505" width="228.5" height="30" as="geometry" />
        </mxCell>
        <mxCell id="IE4iGNRpL9LkpNk8QSh--229" value="XOR-Gate" style="text;html=1;align=left;verticalAlign=middle;whiteSpace=wrap;rounded=0;fontSize=26;" parent="1" vertex="1">
          <mxGeometry x="1418.5" y="1570" width="201.5" height="30" as="geometry" />
        </mxCell>
        <mxCell id="IE4iGNRpL9LkpNk8QSh--230" value="XNOR-Gate" style="text;html=1;align=left;verticalAlign=middle;whiteSpace=wrap;rounded=0;fontSize=26;" parent="1" vertex="1">
          <mxGeometry x="1418.5" y="1630" width="233" height="30" as="geometry" />
        </mxCell>
        <mxCell id="IE4iGNRpL9LkpNk8QSh--231" value="Buffer" style="text;html=1;align=left;verticalAlign=middle;whiteSpace=wrap;rounded=0;fontSize=26;" parent="1" vertex="1">
          <mxGeometry x="1418.5" y="1693" width="303" height="30" as="geometry" />
        </mxCell>
        <mxCell id="IE4iGNRpL9LkpNk8QSh--232" value="Inverter" style="text;html=1;align=left;verticalAlign=middle;whiteSpace=wrap;rounded=0;fontSize=26;" parent="1" vertex="1">
          <mxGeometry x="1418.5" y="1760" width="230" height="30" as="geometry" />
        </mxCell>
        <mxCell id="IE4iGNRpL9LkpNk8QSh--233" value="Schmitt Trigger" style="text;html=1;align=left;verticalAlign=middle;whiteSpace=wrap;rounded=0;fontSize=26;" parent="1" vertex="1">
          <mxGeometry x="1420" y="1825" width="230" height="30" as="geometry" />
        </mxCell>
        <mxCell id="IE4iGNRpL9LkpNk8QSh--236" value="" style="verticalLabelPosition=bottom;shadow=0;dashed=0;align=center;html=1;verticalAlign=top;shape=mxgraph.electrical.logic_gates.schmitt_trigger;" parent="1" vertex="1">
          <mxGeometry x="1324.75" y="1817.5" width="65" height="40" as="geometry" />
        </mxCell>
        <mxCell id="IE4iGNRpL9LkpNk8QSh--237" value="" style="verticalLabelPosition=bottom;shadow=0;dashed=0;align=center;html=1;verticalAlign=top;shape=mxgraph.electrical.logic_gates.inverter_2" parent="1" vertex="1">
          <mxGeometry x="1327.25" y="1755" width="60" height="40" as="geometry" />
        </mxCell>
      </root>
    </mxGraphModel>
  </diagram>
</mxfile>
